<svg width="20" height="20" viewBox="0 0 20 20" fill="none" xmlns="http://www.w3.org/2000/svg">
<path d="M16.6636 6.66544H3.33272C2.87257 6.66544 2.49954 7.03846 2.49954 7.49862V9.16498C2.49954 9.62513 2.87257 9.99816 3.33272 9.99816H16.6636C17.1238 9.99816 17.4968 9.62513 17.4968 9.16498V7.49862C17.4968 7.03846 17.1238 6.66544 16.6636 6.66544Z" stroke="white" stroke-width="1.66636" stroke-linecap="round" stroke-linejoin="round"/>
<path d="M9.99817 6.66544V17.4968" stroke="white" stroke-width="1.66636" stroke-linecap="round" stroke-linejoin="round"/>
<path d="M15.8304 9.99817V15.8304C15.8304 16.2724 15.6549 16.6962 15.3424 17.0087C15.0299 17.3212 14.606 17.4968 14.1641 17.4968H5.83227C5.39032 17.4968 4.96648 17.3212 4.65397 17.0087C4.34147 16.6962 4.16591 16.2724 4.16591 15.8304V9.99817" stroke="white" stroke-width="1.66636" stroke-linecap="round" stroke-linejoin="round"/>
<path d="M6.24886 6.66544C5.69643 6.66544 5.16662 6.44599 4.77599 6.05536C4.38536 5.66473 4.16591 5.13493 4.16591 4.58249C4.16591 4.03006 4.38536 3.50025 4.77599 3.10962C5.16662 2.71899 5.69643 2.49954 6.24886 2.49954C7.05262 2.48554 7.84026 2.87552 8.50906 3.61864C9.17786 4.36175 9.69679 5.42351 9.99817 6.66544C10.2996 5.42351 10.8185 4.36175 11.4873 3.61864C12.1561 2.87552 12.9437 2.48554 13.7475 2.49954C14.2999 2.49954 14.8297 2.71899 15.2204 3.10962C15.611 3.50025 15.8304 4.03006 15.8304 4.58249C15.8304 5.13493 15.611 5.66473 15.2204 6.05536C14.8297 6.44599 14.2999 6.66544 13.7475 6.66544" stroke="white" stroke-width="1.66636" stroke-linecap="round" stroke-linejoin="round"/>
</svg>
