<svg width="20" height="20" viewBox="0 0 20 20" fill="none" xmlns="http://www.w3.org/2000/svg">
<g clip-path="url(#clip0_1_93)">
<path d="M4.99909 13.3309C9.16499 13.3309 10.8314 6.66544 14.9973 6.66544C15.8811 6.66544 16.7288 7.01656 17.3538 7.64157C17.9789 8.26657 18.33 9.11427 18.33 9.99816C18.33 10.8821 17.9789 11.7297 17.3538 12.3547C16.7288 12.9798 15.8811 13.3309 14.9973 13.3309C10.8314 13.3309 9.16499 6.66544 4.99909 6.66544C4.1152 6.66544 3.26751 7.01656 2.6425 7.64157C2.01749 8.26657 1.66637 9.11427 1.66637 9.99816C1.66637 10.8821 2.01749 11.7297 2.6425 12.3547C3.26751 12.9798 4.1152 13.3309 4.99909 13.3309Z" stroke="white" stroke-width="1.66636" stroke-linecap="round" stroke-linejoin="round"/>
</g>
<defs>
<clipPath id="clip0_1_93">
<rect width="19.9963" height="19.9963" fill="white"/>
</clipPath>
</defs>
</svg>
