<svg width="20" height="20" viewBox="0 0 20 20" fill="none" xmlns="http://www.w3.org/2000/svg">
<g clip-path="url(#clip0_28_1028)">
<path d="M14.164 1.66699H5.83216C3.5314 1.66699 1.66626 3.53213 1.66626 5.8329V14.1647C1.66626 16.4655 3.5314 18.3306 5.83216 18.3306H14.164C16.4647 18.3306 18.3299 16.4655 18.3299 14.1647V5.8329C18.3299 3.53213 16.4647 1.66699 14.164 1.66699Z" stroke="white" stroke-opacity="0.7" stroke-width="1.66636" stroke-linecap="round" stroke-linejoin="round"/>
<path d="M13.3308 9.47375C13.4336 10.1672 13.3152 10.8753 12.9923 11.4976C12.6695 12.1198 12.1587 12.6244 11.5325 12.9395C10.9063 13.2547 10.1968 13.3644 9.50467 13.253C8.81258 13.1416 8.17323 12.8149 7.67755 12.3192C7.18187 11.8235 6.85511 11.1842 6.74375 10.4921C6.63238 9.79999 6.74208 9.0904 7.05724 8.46425C7.3724 7.8381 7.87697 7.32726 8.49919 7.00441C9.12141 6.68155 9.82959 6.56311 10.523 6.66593C11.2303 6.77082 11.8851 7.10041 12.3907 7.60602C12.8963 8.11163 13.2259 8.76645 13.3308 9.47375Z" stroke="white" stroke-opacity="0.7" stroke-width="1.66636" stroke-linecap="round" stroke-linejoin="round"/>
<path d="M14.5806 5.41602H14.5889" stroke="white" stroke-opacity="0.7" stroke-width="1.66636" stroke-linecap="round" stroke-linejoin="round"/>
</g>
<defs>
<clipPath id="clip0_28_1028">
<rect width="19.9963" height="19.9963" fill="white"/>
</clipPath>
</defs>
</svg>
