<svg width="20" height="20" viewBox="0 0 20 20" fill="none" xmlns="http://www.w3.org/2000/svg">
<g clip-path="url(#clip0_231_496)">
<path d="M12.1111 18.0681C12.1427 18.147 12.1978 18.2143 12.2688 18.2611C12.3398 18.3078 12.4234 18.3316 12.5084 18.3295C12.5934 18.3273 12.6756 18.2992 12.7442 18.2489C12.8127 18.1986 12.8642 18.1285 12.8918 18.0481L18.3075 2.21771C18.3341 2.14388 18.3392 2.06399 18.3221 1.98738C18.305 1.91077 18.2665 1.84061 18.211 1.7851C18.1555 1.7296 18.0853 1.69105 18.0087 1.67397C17.9321 1.65689 17.8522 1.66197 17.7784 1.68864L1.94796 7.10431C1.86755 7.13189 1.79751 7.1834 1.74722 7.25193C1.69693 7.32046 1.66882 7.40274 1.66664 7.48771C1.66446 7.57268 1.68833 7.65629 1.73504 7.72731C1.78176 7.79832 1.84907 7.85335 1.92796 7.885L8.53508 10.5345C8.74395 10.6181 8.93372 10.7432 9.09295 10.9021C9.25218 11.0611 9.37758 11.2506 9.46158 11.4593L12.1111 18.0681Z" stroke="white" stroke-opacity="0.7" stroke-width="1.66636" stroke-linecap="round" stroke-linejoin="round"/>
<path d="M18.2083 1.78906L9.09326 10.9032" stroke="white" stroke-opacity="0.7" stroke-width="1.66636" stroke-linecap="round" stroke-linejoin="round"/>
</g>
<defs>
<clipPath id="clip0_231_496">
<rect width="19.9963" height="19.9963" fill="white"/>
</clipPath>
</defs>
</svg>
